<?xml version="1.0" encoding="utf-8"?>
<!-- Generator: Adobe Illustrator 23.1.0, SVG Export Plug-In . SVG Version: 6.00 Build 0)  -->
<svg version="1.1" id="ic_zterra_bic" xmlns="http://www.w3.org/2000/svg" xmlns:xlink="http://www.w3.org/1999/xlink" x="0px"
	 y="0px" viewBox="0 0 24 24" style="enable-background:new 0 0 24 24;" xml:space="preserve">
<style type="text/css">
	.st0{fill:#28B8CE;}
	.st1{fill:none;}
	.st2{fill:#FFFFFF;}
</style>
<path id="Path_18926" class="st0" d="M12,2C6.5,2,2,6.5,2,12s4.5,10,10,10s10-4.5,10-10S17.5,2,12,2z M12,21.3
	c-5.1,0-9.3-4.1-9.3-9.3S6.9,2.8,12,2.8s9.3,4.1,9.3,9.3S17.1,21.3,12,21.3L12,21.3z"/>
<path id="Path_18927" class="st0" d="M12,3.5c-11-0.2-11,17.2,0,17C23,20.7,23,3.3,12,3.5z"/>
<path id="Rectangle_4542" class="st1" d="M0,0h24v24H0V0z"/>
<g>
	<g>
		<path class="st2" d="M9.6,7.9h2.3c1.6,0,2.7,0.5,2.7,1.9c0,0.8-0.4,1.5-1.1,1.7v0c0.9,0.2,1.6,0.8,1.6,1.9c0,1.5-1.2,2.3-3,2.3
			H9.6V7.9z M11.7,11.3c1.3,0,1.9-0.5,1.9-1.3c0-0.9-0.6-1.3-1.8-1.3h-1.2v2.6H11.7z M11.9,15c1.3,0,2.1-0.5,2.1-1.5
			c0-1-0.8-1.4-2.1-1.4h-1.4v3H11.9z"/>
	</g>
</g>
</svg>
