<?xml version="1.0" encoding="utf-8"?>
<!-- Generator: Adobe Illustrator 23.1.0, SVG Export Plug-In . SVG Version: 6.00 Build 0)  -->
<svg version="1.1" id="ic_empty_transactions" xmlns="http://www.w3.org/2000/svg" xmlns:xlink="http://www.w3.org/1999/xlink"
	 x="0px" y="0px" viewBox="0 0 100 100" style="enable-background:new 0 0 100 100;" xml:space="preserve">
<style type="text/css">
	.st0{fill:#D6D6D6;}
	.st1{fill:#666666;}
	.st2{fill:none;}
</style>
<g id="Group_9015">
	<path id="Path_18970" class="st0" d="M50,26c-13.3,0-24,10.7-24,24s10.7,24,24,24s24-10.7,24-24S63.3,26,50,26z M50,68
		c-9.9,0-18-8.1-18-18s8.1-18,18-18s18,8.1,18,18S59.9,68,50,68z"/>
	<g id="Group_9014">
		<g id="Group_9013">
			<path id="Path_18972" class="st1" d="M50,31c-10.5,0-19,8.5-19,19s8.5,19,19,19s19-8.5,19-19S60.5,31,50,31z M50,67
				c-9.4,0-17-7.6-17-17s7.6-17,17-17s17,7.6,17,17S59.4,67,50,67z"/>
			<path id="Rectangle_4664" class="st1" d="M83,56h2v4h-2V56z"/>
			<path id="Rectangle_4665" class="st1" d="M83,44h2v8h-2V44z"/>
			<path id="Rectangle_4666" class="st1" d="M15,48h2v8h-2V48z"/>
			<path id="Rectangle_4667" class="st1" d="M15,40h2v4h-2V40z"/>
			<path id="Path_18973" class="st1" d="M95.2,71H85v-7h-2v9h7.8L76,90.5L61.2,73H68v-2h-4.5c11.6-7.5,15-22.9,7.5-34.5
				c-6.4-9.9-18.9-14-29.9-9.8L24,6.5L4.8,29H15v7h2v-9H9.2L24,9.5L38.8,27H32v2h4.5c-11.6,7.5-15,22.9-7.5,34.5
				c6.4,9.9,18.9,14,29.9,9.8L76,93.5L95.2,71z M27,50c0-12.7,10.3-23,23-23s23,10.3,23,23S62.7,73,50,73S27,62.7,27,50z"/>
		</g>
		<g>
			<g>
				<path class="st1" d="M47.1,44.8h3c2.1,0,3.6,0.7,3.6,2.6c0,1-0.6,2-1.8,2.3v0.1c1.5,0.2,2.4,1.1,2.4,2.5c0,2.1-1.6,3.1-4,3.1
					h-3.2V44.8z M49.8,49.3c1.8,0,2.5-0.6,2.5-1.7c0-1.1-0.8-1.6-2.4-1.6h-1.5v3.3H49.8z M50.1,54.2c1.8,0,2.8-0.6,2.8-2
					c0-1.3-1-1.8-2.8-1.8h-1.7v3.8H50.1z"/>
			</g>
		</g>
	</g>
</g>
<path id="Rectangle_4668" class="st2" d="M0,0h100v100H0V0z"/>
</svg>
