<?xml version="1.0" encoding="utf-8"?>
<!-- Generator: Adobe Illustrator 23.1.0, SVG Export Plug-In . SVG Version: 6.00 Build 0)  -->
<svg version="1.1" id="ic_empty_dark_multisend" xmlns="http://www.w3.org/2000/svg" xmlns:xlink="http://www.w3.org/1999/xlink"
	 x="0px" y="0px" viewBox="0 0 100 100" style="enable-background:new 0 0 100 100;" xml:space="preserve">
<style type="text/css">
	.st0{fill:#413D4A;}
	.st1{fill:none;}
	.st2{fill:#A09EA5;}
</style>
<g id="Group_9062">
	<g id="Group_9060">
		<path id="Rectangle_4717" class="st0" d="M45,18h10v9H45V18z"/>
		<g id="Group_9059">
			<path id="Rectangle_4718" class="st0" d="M14,66h6v10h-6V66z"/>
			<path id="Rectangle_4719" class="st0" d="M80,66h6v10h-6V66z"/>
			<path id="Rectangle_4720" class="st0" d="M47,66h6v10h-6V66z"/>
		</g>
	</g>
	<g id="Group_9061">
		<rect x="43.1" y="31.4" class="st1" width="19" height="18.2"/>
		<rect x="45.2" y="33.4" class="st1" width="14.8" height="15.7"/>
		<path id="Rectangle_4722" class="st2" d="M67,40h2v4h-2V40z"/>
		<circle id="Ellipse_643" class="st2" cx="50" cy="73" r="1"/>
		<circle id="Ellipse_644" class="st2" cx="83" cy="73" r="1"/>
		<path id="Rectangle_4723" class="st2" d="M32,58h4v2h-4V58z"/>
		<path id="Path_19007" class="st2" d="M16,65h-3v3H7v4h2v-2h4v7h8v-7h4v21H9V76H7v17h20V68h-6v-3h-3v-5h10v-2H16V65z M19,67v8h-4
			v-8H19z"/>
		<circle id="Ellipse_645" class="st2" cx="17" cy="73" r="1"/>
		<path id="Path_19008" class="st2" d="M87,68v-3h-3v-7H51v-5h18v-5h-2v3H33V28h34v8h2v-8h4V17H59.5c2.2-2.5,2-6.3-0.5-8.5
			s-6.3-2-8.5,0.5c-0.2,0.2-0.4,0.5-0.5,0.7c-1.8-2.8-5.5-3.5-8.3-1.7s-3.5,5.5-1.7,8.3c0.2,0.3,0.4,0.5,0.6,0.7H27v11h4v25h18v5h-9
			v2h9v5h-3v3h-6v16h2V70h4v7h8v-7h4v21H42v-3h-2v5h20V68h-6v-3h-3v-5h31v5h-3v3h-6v12h2V70h4v7h8v-7h4v21H75v-7h-2v9h20V68H87z
			 M71,19v7H56v-7H71z M51,13c0-2.2,1.8-4,4-4s4,1.8,4,4s-1.8,4-4,4h-4V13z M51,19h3v7h-8v-7H51z M45,9c2.2,0,4,1.8,4,4v4h-4
			c-2.2,0-4-1.8-4-4S42.8,9,45,9z M29,26v-7h15v7H29z M52,67v8h-4v-8H52z M85,75h-4v-8h4V75z"/>
	</g>
</g>
<path id="Rectangle_4724" class="st1" d="M0,0h100v100H0V0z"/>
<g>
	<g>
		<path class="st2" d="M46.6,33.4h3.1c2.1,0,3.6,0.7,3.6,2.6c0,1-0.6,2-1.5,2.3v0.1c1.3,0.2,2.1,1.1,2.1,2.5c0,2.1-1.6,3.1-4,3.1
			h-3.4V33.4z M49.5,37.8c1.8,0,2.5-0.7,2.5-1.7c0-1.2-0.8-1.7-2.5-1.7H48v3.4H49.5z M49.8,42.8c1.8,0,2.9-0.6,2.9-2.1
			c0-1.3-1-1.9-2.9-1.9H48v3.9H49.8z"/>
	</g>
</g>
</svg>
