<?xml version="1.0" encoding="utf-8"?>
<!-- Generator: Adobe Illustrator 23.1.0, SVG Export Plug-In . SVG Version: 6.00 Build 0)  -->
<svg version="1.1" id="ic_empty_Dark_transactions" xmlns="http://www.w3.org/2000/svg" xmlns:xlink="http://www.w3.org/1999/xlink"
	 x="0px" y="0px" viewBox="0 0 100 100" style="enable-background:new 0 0 100 100;" xml:space="preserve">
<style type="text/css">
	.st0{fill:#413D4A;}
	.st1{fill:#A09EA5;}
	.st2{fill:none;}
</style>
<g id="Group_9036">
	<path id="Path_18988" class="st0" d="M50,26c-13.3,0-24,10.7-24,24s10.7,24,24,24s24-10.7,24-24S63.3,26,50,26z M50,68
		c-9.9,0-18-8.1-18-18s8.1-18,18-18s18,8.1,18,18S59.9,68,50,68z"/>
	<g id="Group_9035">
		<g id="Group_9034">
			<path id="Path_18990" class="st1" d="M50,31c-10.5,0-19,8.5-19,19s8.5,19,19,19s19-8.5,19-19S60.5,31,50,31z M50,67
				c-9.4,0-17-7.6-17-17s7.6-17,17-17s17,7.6,17,17S59.4,67,50,67z"/>
			<path id="Rectangle_4693" class="st1" d="M83,56h2v4h-2V56z"/>
			<path id="Rectangle_4694" class="st1" d="M83,44h2v8h-2V44z"/>
			<path id="Rectangle_4695" class="st1" d="M15,48h2v8h-2V48z"/>
			<path id="Rectangle_4696" class="st1" d="M15,40h2v4h-2V40z"/>
			<path id="Path_18991" class="st1" d="M95.2,71H85v-7h-2v9h7.8L76,90.5L61.2,73H68v-2h-4.5c11.6-7.5,15-22.9,7.5-34.5
				c-6.4-9.9-18.9-14-29.9-9.8L24,6.5L4.8,29H15v7h2v-9H9.2L24,9.5L38.8,27H32v2h4.5c-11.6,7.5-15,22.9-7.5,34.5
				c6.4,9.9,18.9,14,29.9,9.8L76,93.5L95.2,71z M27,50c0-12.7,10.3-23,23-23s23,10.3,23,23S62.7,73,50,73S27,62.7,27,50z"/>
		</g>
		<rect x="39.7" y="37.3" class="st2" width="20.4" height="25.7"/>
		<rect x="43" y="41.1" class="st2" width="17.7" height="20.2"/>
		<g>
			<g>
				<path class="st0" d="M45.8,43.1h3.9c2.7,0,4.5,0.9,4.5,3.2c0,1.3-0.7,2.5-1.9,2.9v0.1c1.6,0.3,2.7,1.3,2.7,3.1
					c0,2.6-2,3.8-5,3.8h-4.2V43.1z M49.5,48.7c2.2,0,3.2-0.8,3.2-2.2c0-1.5-1.1-2.1-3.1-2.1h-2v4.3H49.5z M49.8,54.9
					c2.2,0,3.6-0.8,3.6-2.6c0-1.6-1.3-2.4-3.6-2.4h-2.3v4.9H49.8z"/>
			</g>
		</g>
	</g>
</g>
<path id="Rectangle_4697" class="st2" d="M0,0h100v100H0V0z"/>
</svg>
