/* XPM */
static char *result[] = {
/* columns rows colors chars-per-pixel */
"16 16 184 2 ",
"   c #3B3A39",
".  c #3B3B3A",
"X  c #3C3C3C",
"o  c gray24",
"O  c #3D3E3E",
"+  c #3E3E3E",
"@  c #3F3E3E",
"#  c #3F3F3F",
"$  c #453B36",
"%  c #403E3D",
"&  c #403F3F",
"*  c #40403F",
"=  c #42403F",
"-  c #45413F",
";  c #48413D",
":  c #4D443E",
">  c #605E3F",
",  c #6B6937",
"<  c #63623F",
"1  c #6E6C3B",
"2  c #6F6E3A",
"3  c #6B693E",
"4  c #6E6D3C",
"5  c #706E37",
"6  c #71703B",
"7  c #3E4041",
"8  c #3E4143",
"9  c #394044",
"0  c #3B4246",
"q  c #3C4246",
"w  c #3B4449",
"e  c #3D454B",
"r  c #3F484D",
"t  c #3F494F",
"y  c #384A56",
"u  c #384C59",
"i  c #3C4E5A",
"p  c #3D4F5A",
"a  c #355163",
"s  c #32576E",
"d  c #315B76",
"f  c #34617E",
"g  c gray25",
"h  c #414040",
"j  c #414141",
"k  c #434140",
"l  c gray26",
"z  c #434242",
"x  c #434343",
"c  c #454443",
"v  c #434345",
"b  c #404447",
"n  c #444444",
"m  c gray27",
"M  c #464646",
"N  c #464647",
"B  c gray28",
"V  c #4A4340",
"C  c #4A4440",
"Z  c #4C4C45",
"A  c #474A4C",
"S  c #484848",
"D  c #494949",
"F  c #4A4A48",
"G  c #48484A",
"H  c #49494A",
"J  c #49494B",
"K  c #4C4A49",
"L  c #4E4E49",
"P  c #4A4A4C",
"I  c #4B4B4D",
"U  c #4B4C4D",
"Y  c #4C4C4C",
"T  c gray30",
"R  c #4F4F4D",
"E  c #4D4D4F",
"W  c #4D4E4E",
"Q  c gray31",
"!  c #524842",
"~  c #524944",
"^  c #514A45",
"/  c #544B46",
"(  c #524D49",
")  c #564E48",
"_  c #5A5943",
"`  c #51504A",
"'  c #545348",
"]  c #51514E",
"[  c #51504F",
"{  c #53534E",
"}  c #52524F",
"|  c #56504D",
" . c #55514F",
".. c #57564E",
"X. c #5A504A",
"o. c #5B524C",
"O. c #5C534C",
"+. c #404D55",
"@. c #414F57",
"#. c #4E5459",
"$. c #505050",
"%. c #505051",
"&. c #515151",
"*. c #525250",
"=. c #525251",
"-. c #515153",
";. c gray32",
":. c #525253",
">. c #525353",
",. c #535353",
"<. c #545251",
"1. c #565351",
"2. c #555453",
"3. c #525557",
"4. c gray33",
"5. c #545455",
"6. c #555555",
"7. c #565656",
"8. c #585451",
"9. c #585756",
"0. c #53585B",
"q. c #585858",
"w. c #5D5D5D",
"e. c #626140",
"r. c #636140",
"t. c #636242",
"y. c #656340",
"u. c #656440",
"i. c #626144",
"p. c #646344",
"a. c #686740",
"s. c #405969",
"d. c #425D6E",
"f. c #496272",
"g. c #486373",
"h. c #44677D",
"j. c #6B6B6A",
"k. c #6D6D6E",
"l. c #6F6F6F",
"z. c #7B7B7C",
"x. c #7E7E7E",
"c. c #7E7E7F",
"v. c #2C6386",
"b. c #2A688F",
"n. c #286A94",
"m. c #2F6F97",
"M. c #376E91",
"N. c #306D94",
"B. c #1F7AB3",
"V. c #1A7EBC",
"C. c #2A73A1",
"Z. c #2477AB",
"A. c #2078AF",
"S. c #2C7AAB",
"D. c #257BB0",
"F. c #237CB3",
"G. c #247CB4",
"H. c #237FB9",
"J. c #2480BA",
"K. c #2580BA",
"L. c #2180BC",
"P. c #2282BE",
"I. c #2382BE",
"U. c #0F8DDA",
"Y. c #0F8DDC",
"T. c #178AD3",
"R. c #128EDB",
"E. c #808080",
"W. c #818181",
"Q. c gray51",
"!. c #838383",
"~. c #868787",
"^. c #8E8E8E",
"/. c gray56",
"(. c #929292",
"). c #939393",
"_. c #959595",
"`. c gray59",
"'. c #989898",
"]. c #A2A2A2",
"[. c gray64",
"{. c #A7A7A7",
"}. c #ACACAC",
"|. c None",
/* pixels */
"|.|.|.|.|.U.Z.N.m.D.R.|.|.|.|.|.",
"|.|.|.V.f K ! ~ / ) 3.M.T.|.|.|.",
"|.|.n.@.: K I R } -.<.X.f.P.|.|.",
"|.v.p C D J ` 4 6 ..:.5.o.h.I.|.",
"|.d ; B S H e.u.a.p.;.4.6.O.S.|.",
"s r c M S G _ 2 3 { &.,.4.8.g.K.",
"a z n M B F L r.1 i.$.;.,.2.0.J.",
"u = x m N S > < y.t.] %.;.,.1.H.",
"8 j x n n v Z , 5 ' P Q &.=. .L.",
"@ g l l T q.U *.] E w.;.Q [ #.G.",
"+ & j o E.{.^.c.z.^.[.l.D ( d.F.",
"|.7 * X Q.]._.x.'./.S W Y ^ C.|.",
"|.0 # . ~.}.(.W.!.).`.k.V s.Y.|.",
"|.|.q O 9.j.4.7.4.>.l.| A B.|.|.",
"|.|.|.w 9   % h k - $ +.A.|.|.|.",
"|.|.|.|.|.y e b t i b.|.|.|.|.|."
};
