/* XPM */
static char *result[] = {
/* columns rows colors chars-per-pixel */
"48 48 136 2 ",
"   c gray21",
".  c #3E3E3E",
"X  c #493E36",
"o  c #433E3C",
"O  c #44413F",
"+  c #4B423B",
"@  c #65643E",
"#  c #68673E",
"$  c #6C6B3D",
"%  c #716F37",
"&  c #716F39",
"*  c #727036",
"=  c #797735",
"-  c #7D7B34",
";  c #747239",
":  c #787539",
">  c #3F3F40",
",  c #3E4244",
"<  c #3B454B",
"1  c #3D484E",
"2  c #374A55",
"3  c #3A4953",
"4  c #364D5B",
"5  c #3A4E5A",
"6  c #365365",
"7  c #3D5665",
"8  c #31576F",
"9  c #3E5C6E",
"0  c #2C5E7E",
"q  c #305770",
"w  c #325A74",
"e  c #3D5E73",
"r  c #3F6075",
"t  c #3C637B",
"y  c #444443",
"u  c #4B4642",
"i  c #4D4946",
"p  c #45464C",
"a  c #43494C",
"s  c #4B4B4B",
"d  c #504640",
"f  c #534B45",
"g  c #534D49",
"h  c #584F4A",
"j  c #535346",
"k  c #5C5B45",
"l  c #54534C",
"z  c #5B524D",
"x  c #5C5B48",
"c  c #444551",
"v  c #464C52",
"b  c #4D4D51",
"n  c #535353",
"m  c #595452",
"M  c #545B5F",
"N  c #5B5B5B",
"B  c #656441",
"V  c #425561",
"C  c #4A5A64",
"Z  c #465C69",
"A  c #4C5E69",
"S  c #515C63",
"D  c #405E71",
"F  c #4E616C",
"G  c #496272",
"H  c #436479",
"J  c #636363",
"K  c #6C6C6C",
"L  c #737373",
"P  c #7C7C7C",
"I  c #817E31",
"U  c #86832E",
"Y  c #89862D",
"T  c #8D8A2B",
"R  c #918D29",
"E  c #838131",
"W  c #2B6385",
"Q  c #27668E",
"!  c #2B678C",
"~  c #2A698F",
"^  c #326382",
"/  c #3F6882",
"(  c #306688",
")  c #34698A",
"_  c #386B8B",
"`  c #246B96",
"'  c #2D6D94",
"]  c #236D9B",
"[  c #2A6F9A",
"{  c #306F97",
"}  c #386F92",
"|  c #2F739D",
" . c #357197",
".. c #3A7093",
"X. c #1C79B2",
"o. c #1C7EBB",
"O. c #2272A3",
"+. c #2C76A4",
"@. c #2D78A6",
"#. c #2277AC",
"$. c #2378AD",
"%. c #2A7AAC",
"&. c #227BB3",
"*. c #2A7DB0",
"=. c #227EB8",
"-. c #406A84",
";. c #1D81BF",
":. c #2282BD",
">. c #1682C4",
",. c #1C83C4",
"<. c #1686CC",
"1. c #1986CB",
"2. c #1488CF",
"3. c #1B88CC",
"4. c #0F8AD8",
"5. c #148AD4",
"6. c #118EDC",
"7. c #1390DC",
"8. c #2184C1",
"9. c #0D8FE1",
"0. c #0C92E6",
"q. c #0796EF",
"w. c #0A95EC",
"e. c #0797F1",
"r. c #0699F4",
"t. c #019DFD",
"y. c #00A1FF",
"u. c #8C8C8C",
"i. c #949494",
"p. c #9B9B9B",
"a. c #A3A3A3",
"s. c #ABABAB",
"d. c #B4B4B4",
"f. c #BABABA",
"g. c #C2C2C2",
"h. c None",
/* pixels */
"h.h.h.h.h.h.h.h.h.h.h.h.h.h.h.h.h.h.h.y.y.y.t.t.t.t.t.r.r.h.h.h.h.h.h.h.h.h.h.h.h.h.h.h.h.h.h.h.",
"h.h.h.h.h.h.h.h.h.h.h.h.h.h.h.h.y.t.9.o.' t 9 G r t ) %.2.w.t.r.h.h.h.h.h.h.h.h.h.h.h.h.h.h.h.h.",
"h.h.h.h.h.h.h.h.h.h.h.h.h.t.y.5.[ 9 s f i f i j g g g h g C _ :.w.t.0.h.h.h.h.h.h.h.h.h.h.h.h.h.",
"h.h.h.h.h.h.h.h.h.h.h.h.y.2.^ s + f s s b b l b b l n b n l h z A *.w.t.h.h.h.h.h.h.h.h.h.h.h.h.",
"h.h.h.h.h.h.h.h.h.h.e.0.( O + s s l b g b g b l n b n n n n n n m z A :.t.0.h.h.h.h.h.h.h.h.h.h.",
"h.h.h.h.h.h.h.h.h.y.,.v + s s s s s s b s b s b b b g n n n n n n n m z ..e.e.h.h.h.h.h.h.h.h.h.",
"h.h.h.h.h.h.h.h.y.O.+ O s i s s s s s s b b s l l b n s n n n n n n n n z G 0.t.h.h.h.h.h.h.h.h.",
"h.h.h.h.h.h.h.t.~ + i a s s s i s s s s s l b b b b n s n n n n N n n N m z S 7.t.h.h.h.h.h.h.h.",
"h.h.h.h.h.h.r.! + y p i a i s y s s s s s s x l l k n n b n n n n N n N n N m S 7.y.h.h.h.h.h.h.",
"h.h.h.h.h.0.#.X y i i p i a a s s s s b b v & # l E b n n n n n n n n n n n n z F r.r.h.h.h.h.h.",
"h.h.h.h.X.5.+ y y a a i s i a i s s s s s j E E : T x b b n n n n n N n N N n N z -.y.6.h.h.h.h.",
"h.h.h.h.w.5 y y y y a i y s i s s s s s : E T - & T E : n b n n n n n n n n N n N N 8.t.8.h.h.h.",
"h.h.h.4.O.X y u y i i s i a s s s s a & E v & B l I b - = b n n n n n n n N N n N m A w.w.h.h.h.",
"h.h.h.9.y y y p a i y y i y y s i s s E j c ; B l U b n E l n n n n n N n n n N n N z *.y.3.h.h.",
"h.h.>.! X y y y y i a a s i s s i s s - g a ; # l I b b - B b n n n n n n n n n N m m A w.w.h.h.",
"h.h.>.1 y y y y y y y i a y i a s s p E B 3 & # l I n b x l n n n n n n n N N n n m N z *.t.h.h.",
"h.Q ] + O y y y y y a i a s a i p s a k Y $ = @ s E b b b l b n n n n n n n N n N N n x -.t.5.h.",
"h.` w O y y y a i y y y y i y a i s s p j = T Y = Y z v n b n n b n n n n n n n n n M n S w.w.h.",
"h.O.5 O y y y y a y i a y i i s i s i s s c $ : $ R E - x b b l b n n n n n n n n n m n z 8.t.h.",
"1 ] , O > y y y y y y y a i i y a s i s s s * @ l - s ; Y l b b n l n v n n N n N n N n z @.y.@.",
"4 W O . O y y y y i y i a y i a i < @ % a a * @ l I s c : $ b b n j n n n n n n n n n n z  .t.:.",
"6 0 o y y y y y y y y a y i a i i p @ = p p % # l E s v $ : b n n n n n b n n n n n N n z / r.8.",
"8 8 o . O , y y O a y y y i y a i a i U i p & # j I s v : & b b n s l n n n n n n n N n m H r.,.",
"8 6 O O y > y y y y i y a y i i a i a * I p $ @ s I v B Y j b b s n b b n n n n n n n n l H r.3.",
"2 < . O , , O y y y y y y a y a a i a i * - U = $ T = U k b b b n b l n j n n b n n n n m H e.3.",
", . O , O y y y y y y i y i i i y a i a a j I U - T B b s s b b s n n b v n n n n n n n l t e.1.",
". . O O . y , O y y y y y y i y y i a i y a * @ i - s s b s g b b s b l l n l l n n n n h _ e.1.",
". . , . y o , y y y y y y a y a a i i i p i j j s k i s s s b g b l s b b b b n b g n n h | e.,.",
". . > o . , o y y y y y y y O , . . y i s i a > y a s s s s y s s b s b b l l b n l b n g *.w.+.",
"h., . , . y . y y O y y a n J K K K N y y y N P J n s s y N K K J s s l l b b l b n b n l 5.5.h.",
"h.. . . o , , O y , y y y p.f.d.f.f.f.a.n . P g.s.K O s u.s.f.f.s.p.K s b b b b l b l l Z w.=.h.",
"h.. o . , > . y O , y O y p.a.a.g.f.d.f.i.  L p.s.K . i.f.a.d.d.s.d.u.s b g n b s n b f { 4.:.h.",
"h.h.. . > , o y . y y O y p.s.s.J K a.a.p.O L a.s.J K d.s.s.u.P s.s.s b l b b b b l b f 1.2.,.h.",
"h.h., . > o , O . y , y y i.d.u.L P p.s.p.o L p.s.J i.d.a.L . , b g s s s s s l s b j r 0.;.h.h.",
"h.h.< > . . . y y o y y y i.u.s.s.s.g.s.i.  L a.s.K p.p.p.i i s s s s s s b g b s s f >.5.2.h.h.",
"h.h.h.< . . . . . , , o y i.a.f.f.f.s.p.u.. L a.s.K p.a.p.b p i y y s s s s b s b j t q.;.h.h.h.",
"h.h.h.2 < . . y o , . y y p.d.p.N J a.p.p.y L p.a.J u.f.a.p.n p L u.y s s s s s s i 4.2.5.h.h.h.",
"h.h.h.h.2 . . . > . y O > p.s.s.p.i.a.a.p.. L a.s.J s d.s.a.p.p.a.d.P y s s s j d %.w.;.h.h.h.h.",
"h.h.h.h.h.3 . . . y o , y p.a.a.s.a.s.f.-.+ L i.a.K   K d.f.p.p.s.d.i.y s s s i r 4.:.h.h.h.h.h.",
"h.h.h.h.h.h.< . . . , . . p.a.a.a.a.s.P + + L s.d.J y o n i.s.s.a.L y s s i s 7 $.$.5.h.h.h.h.h.",
"h.h.h.h.h.h.3 < . . , o , y y i y i , . y y y s s y y i y . s s y > p i i s v ) $.<.h.h.h.h.h.h.",
"h.h.h.h.h.h.h.2 < . > o o , . , O , y y y y y y y a y i i y a i i s i p p s ( #.<.h.h.h.h.h.h.h.",
"h.h.h.h.h.h.h.h.h.3 < > . . y o o y O y y y y y y i a y y i i p a i i u p ~ #.<.h.h.h.h.h.h.h.h.",
"h.h.h.h.h.h.h.h.h.h.2 2 , y , , , O , y y y y y y , y y a y y i a y y 7 | $.h.h.h.h.h.h.h.h.h.h.",
"h.h.h.h.h.h.h.h.h.h.h.< 2 3 < o O O , , O y y y y y y y y y i a y y 7 $.>.h.h.h.h.h.h.h.h.h.h.h.",
"h.h.h.h.h.h.h.h.h.h.h.h.h.3 4 < , y O O , , O y a y y y y y y y y t >.h.h.h.h.h.h.h.h.h.h.h.h.h.",
"h.h.h.h.h.h.h.h.h.h.h.h.h.h.h.3 3 3 < y O y y y a O O O y a v w ;.h.h.h.h.h.h.h.h.h.h.h.h.h.h.h.",
"h.h.h.h.h.h.h.h.h.h.h.h.h.h.h.h.h.h.8 < , , 1 5 5 6 7 w ! O.h.h.h.h.h.h.h.h.h.h.h.h.h.h.h.h.h.h."
};
