/* XPM */
static char *result[] = {
/* columns rows colors chars-per-pixel */
"32 32 116 2 ",
"   c #3E3E3E",
".  c #443F3C",
"X  c #493F39",
"o  c #43413E",
"O  c #4B413A",
"+  c #605E3F",
"@  c #63623F",
"#  c #69673E",
"$  c #6B6A3D",
"%  c #706E3C",
"&  c #747236",
"*  c #797734",
"=  c #7D7A33",
"-  c #747239",
";  c #3E3F40",
":  c #3E4144",
">  c #3B454C",
",  c #394750",
"<  c #3B4952",
"1  c #374E5C",
"2  c #3A4D59",
"3  c #3C525F",
"4  c #345265",
"5  c #385364",
"6  c #31566D",
"7  c #37586D",
"8  c #3B596C",
"9  c #2E5975",
"0  c #3B5E73",
"q  c #335E7A",
"w  c #36617C",
"e  c #444443",
"r  c #4A4644",
"t  c #4C4946",
"y  c #46464B",
"u  c #41484C",
"i  c #4B4B4B",
"p  c #514740",
"a  c #544943",
"s  c #534F4B",
"d  c #594F49",
"f  c #555545",
"g  c #585743",
"h  c #5D5C44",
"j  c #54534B",
"k  c #5B524C",
"l  c #5D5D49",
"z  c #4D4E51",
"x  c #4E5254",
"c  c #485258",
"v  c #4F585E",
"b  c #535353",
"n  c #585552",
"m  c #55595C",
"M  c #5E5E5E",
"N  c #605F44",
"B  c #636142",
"V  c #696840",
"C  c #435662",
"Z  c #4D5C65",
"A  c #425E6F",
"S  c #626262",
"D  c #676769",
"F  c #6A6A6A",
"G  c #727272",
"H  c #797979",
"J  c #827F31",
"K  c #2F6384",
"L  c #27678F",
"P  c #29658C",
"I  c #3A6885",
"U  c #3E6C89",
"Y  c #2F6D94",
"T  c #276E9A",
"R  c #396F91",
"E  c #2D719A",
"W  c #30749E",
"Q  c #1E7BB5",
"!  c #1A7EBD",
"~  c #2372A3",
"^  c #2E75A2",
"/  c #2C78A7",
"(  c #2376AA",
")  c #2278AD",
"_  c #2979AA",
"`  c #3076A3",
"'  c #227BB2",
"]  c #257FB8",
"[  c #177FC0",
"{  c #1F80BD",
"}  c #2282BE",
"|  c #1580C4",
" . c #1E86C6",
".. c #1387CF",
"X. c #1985C9",
"o. c #1989CF",
"O. c #0F8AD7",
"+. c #0F8EDD",
"@. c #148AD4",
"#. c #188AD2",
"$. c #128CDA",
"%. c #0C8FE1",
"&. c #0E91E4",
"*. c #0995EC",
"=. c #0599F5",
"-. c #009EFF",
";. c #838383",
":. c #8B8B8B",
">. c #949494",
",. c #9B9B9B",
"<. c #A2A2A2",
"1. c #ACACAC",
"2. c #B3B3B3",
"3. c #BCBCBC",
"4. c #C1C1C1",
"5. c None",
/* pixels */
"5.5.5.5.5.5.5.5.5.5.5.5.-.*.+.$.$.&.*.=.5.5.5.5.5.5.5.5.5.5.5.5.",
"5.5.5.5.5.5.5.5.5.-.$.~ w c i x b x Z I ' %.=.5.5.5.5.5.5.5.5.5.",
"5.5.5.5.5.5.5.5...w i O a i s j z s j s d v ` &.&.5.5.5.5.5.5.5.",
"5.5.5.5.5.5.%.T t t t i i s i i i b z j b n d Z  .*.5.5.5.5.5.5.",
"5.5.5.5.5.O.q O t i i i i z z x z b b b b b b n n / =.5.5.5.5.5.",
"5.5.5.5...7 O t y t y i i i j j j j b b b b n m n k ` =.5.5.5.5.",
"5.5.5.| q O y r y i i i i u f % V B x b b b b b m n k } *.5.5.5.",
"5.5.5.~ o e r y t i u i i + = J = J B x b b b b n m n m &. .5.5.",
"5.5.| u e e i i i i i y f & g V B B - B x b b b n m b n U =.5.5.",
"5.L P X t e e e e i i y @ @ j $ B l l V z b b n n n n m n #.#.5.",
"5.~ > e e e e i e i t y f & g # B B z j b b b b b m n n n R =.5.",
"5.P o e e e y e t e i i i + = = = V z z b z z b b b b m n Z *.5.",
"4 6 . e e e y e u t i i y u j & - * - j z b b b b b b m n n #.] ",
"6 2 . e e e e e e y t y @ i f $ B l l - z z j b b b b n m k } #.",
"9 > o . e e e r t e i y % O j $ B N z - i b b b b b b b n k / @.",
"6 > e e e e e y e i e u + & g $ @ h $ $ z b i x b b b b b k ` $.",
"> ; ; e e e e e t e e i y + * J = = $ i i b b x j b b b b d ^ +.",
"; ; e o o e e e e e i e e y f & $ @ z i i i i b i x j b z s _ $.",
"  ; o : e : e e e e ; : e y t e t i i i t i x i b j x b j s } X.",
"  o ; o ; e e : e M D S n e i D M i r z D S i i i b z b z b #._ ",
"5.  ; o o e e   M 1.3.4.2.G i 1.<.e D <.3.3.,.b i b j z s A $.5.",
"5.    : ; : e   S 1.>.;.1.,.b ,.,.M 1.1.>.<.,.i i i z x a E @.5.",
"5.: ; o o o ;   M 1.>.;.1.>.b ,.,.;.1.H e i i i i i i s x X.X.5.",
"5.5.:   ; ; :   M <.1.1.1.:.x ,.,.;.1.D   e e i i i i a Y $.5.5.",
"5.5., ;   e     M 2.>.G <.,.b ,.,.G 2.,.F H ;.t i z s C @.@.5.5.",
"5.5.5.>   ;     M 2.1.2.2.:.i <.<.e :.2.1.1.1.m i i i ) ..5.5.5.",
"5.5.5.5.>       i :.:.:.;.i r :.;.e e G >.:.M y t t q ' 5.5.5.5.",
"5.5.5.5.5.> ;               e   : r e o : o r e t 8 ( 5.5.5.5.5.",
"5.5.5.5.5.5., > ; o : : e e e e e e e y r y r r 7 ' 5.5.5.5.5.5.",
"5.5.5.5.5.5.5.> < > o o o ; e e e e e e r r r P ! 5.5.5.5.5.5.5.",
"5.5.5.5.5.5.5.5.5.< > : : o o e e o e O e 3 Q 5.5.5.5.5.5.5.5.5.",
"5.5.5.5.5.5.5.5.5.5.5.5.1 : e < 2 3 5 K 5.5.5.5.5.5.5.5.5.5.5.5."
};
